<svg width="1111" height="182" viewBox="0 0 1111 182" fill="none" xmlns="http://www.w3.org/2000/svg">
<path d="M183.349 140.661C164.882 165.749 139.49 177.913 109.481 177.913C56.3887 177.913 18.6852 133.818 18.6852 88.9632C18.6852 44.108 56.3887 0.0129395 108.712 0.0129395C139.49 0.0129395 164.113 12.1771 182.58 36.5054C188.735 44.8682 187.197 55.5118 179.502 60.8336C170.268 67.676 159.496 63.1144 151.801 53.9913C143.337 44.1079 131.026 34.2246 109.481 34.2246C84.0892 34.2246 57.9276 56.2721 57.9276 88.2029C57.9276 120.134 84.0891 142.181 110.251 142.181C131.796 142.181 144.876 133.058 154.11 120.894C159.496 114.052 170.268 108.73 179.502 115.572C187.197 122.415 188.735 133.818 183.349 140.661Z" fill="#512D6D"/>
<path d="M224.9 2.29346C235.672 2.29346 243.367 9.89606 243.367 20.5397V157.386C243.367 168.03 235.672 175.632 224.9 175.632C214.127 175.632 206.433 168.03 206.433 157.386V20.5397C206.433 9.89606 214.127 2.29346 224.9 2.29346Z" fill="#512D6D"/>
<path d="M264.911 24.3405C264.911 13.6969 274.145 4.57373 284.917 4.57373C295.69 4.57373 304.154 13.6969 304.154 24.3405C304.154 34.9841 294.92 44.1072 284.917 44.1072C274.145 44.1072 264.911 34.9841 264.911 24.3405ZM284.917 57.7918C295.69 57.7918 303.384 65.3944 303.384 76.0381V142.181C303.384 152.824 295.69 160.427 284.917 160.427C274.145 160.427 266.45 152.824 266.45 142.181V76.0381C266.45 65.3944 274.145 57.7918 284.917 57.7918Z" fill="#512D6D"/>
<path d="M430.347 157.386C419.574 170.311 402.646 177.913 384.179 177.913C350.323 177.913 323.392 151.304 323.392 117.853C323.392 84.4013 351.092 57.7922 384.179 57.7922C402.646 57.7922 419.574 65.3948 430.347 78.3192C438.041 87.4423 434.963 95.8052 426.499 101.887C417.266 107.209 412.649 104.168 404.185 95.8052C400.338 92.0039 394.182 88.9629 386.487 88.9629C368.02 88.9629 357.248 103.408 357.248 117.853C357.248 132.298 368.02 146.743 386.487 146.743C394.182 146.743 400.338 143.701 404.185 139.9C412.649 131.537 417.266 128.496 426.499 133.818C434.963 139.9 438.041 148.263 430.347 157.386Z" fill="#512D6D"/>
<path d="M555.766 171.832C548.072 177.914 537.299 176.393 531.144 168.03L489.593 115.573V158.147C489.593 168.791 481.898 176.393 471.126 176.393C460.353 176.393 452.659 168.791 452.659 158.147V21.3004C452.659 10.6568 460.353 3.0542 471.126 3.0542C481.898 3.0542 489.593 10.6568 489.593 21.3004V110.251L508.829 87.4429L527.296 66.1557C534.221 58.5531 544.994 57.0326 552.688 63.1147C560.383 69.1967 561.152 79.8404 554.227 87.4429L530.374 113.292L558.844 148.264C565 155.106 563.461 165.75 555.766 171.832Z" fill="#512D6D"/>
<path d="M733.049 92.82C742.556 95.7333 749.839 100.64 754.899 107.54C759.959 114.287 762.489 122.643 762.489 132.61C762.489 141.503 760.112 149.323 755.359 156.07C750.759 162.663 744.089 167.8 735.349 171.48C726.762 175.16 716.642 177 704.989 177H643.809C637.522 177 632.692 175.313 629.319 171.94C625.946 168.567 624.259 163.737 624.259 157.45V34.4C624.259 28.1133 625.946 23.2833 629.319 19.91C632.692 16.5367 637.522 14.85 643.809 14.85H702.689C719.709 14.85 733.202 18.6833 743.169 26.35C753.289 33.8633 758.349 44.06 758.349 56.94C758.349 65.22 756.126 72.58 751.679 79.02C747.232 85.3067 741.022 89.9067 733.049 92.82ZM665.429 78.56H695.559C703.532 78.56 709.359 77.3333 713.039 74.88C716.719 72.4267 718.559 68.5167 718.559 63.15C718.559 57.4767 716.719 53.3367 713.039 50.73C709.359 48.1233 703.532 46.82 695.559 46.82H665.429V78.56ZM699.699 145.03C708.132 145.03 714.112 143.727 717.639 141.12C721.319 138.36 723.159 133.913 723.159 127.78C723.159 121.647 721.319 117.277 717.639 114.67C714.112 111.91 708.132 110.53 699.699 110.53H665.429V145.03H699.699Z" fill="url(#paint0_linear)"/>
<path d="M857.718 40.1196C833.967 40.1196 814.709 58.7065 814.709 81.6304C814.709 95.2609 821.129 107.033 832.041 114.467C835.893 116.946 837.819 121.283 837.819 126.239C837.819 134.293 830.757 141.109 822.412 141.109C819.203 141.109 815.993 139.87 813.426 138.011C795.452 125 784.539 104.554 784.539 81.6304C784.539 42.5978 817.277 11 857.718 11C898.159 11 931.539 41.9783 931.539 81.0109C931.539 103.935 919.984 124.38 902.653 137.391C900.085 139.25 896.875 140.489 893.666 140.489C885.321 140.489 878.26 133.674 878.26 125.62C878.26 120.663 880.827 116.326 884.037 113.848C894.308 106.413 901.369 94.0217 901.369 81.0109C900.727 58.7065 881.469 40.1196 857.718 40.1196ZM893.024 167.13C893.024 159.076 885.963 152.261 877.618 152.261H838.46C830.115 152.261 823.054 159.076 823.054 167.13C823.054 175.185 830.115 182 838.46 182H878.26C886.605 181.38 893.024 175.185 893.024 167.13Z" fill="url(#paint1_linear)"/>
<path d="M1082.56 147.74C1085.79 151.407 1087.4 155.44 1087.4 159.84C1087.4 164.827 1085.42 169.227 1081.46 173.04C1077.65 176.707 1073.32 178.54 1068.48 178.54C1063.35 178.54 1058.87 176.34 1055.06 171.94L1017.22 126.62L978.719 171.94C974.906 176.34 970.506 178.54 965.519 178.54C960.679 178.54 956.279 176.633 952.319 172.82C948.506 169.007 946.599 164.607 946.599 159.62C946.599 155.367 948.139 151.407 951.219 147.74L993.459 98.9L952.319 51.16C949.092 47.3467 947.479 43.3867 947.479 39.28C947.479 34.2933 949.386 29.9667 953.199 26.3C957.159 22.4867 961.632 20.58 966.619 20.58C971.752 20.58 976.226 22.78 980.039 27.18L1017.22 71.18L1054.18 27.18C1057.7 22.78 1062.03 20.58 1067.16 20.58C1072.15 20.58 1076.55 22.4867 1080.36 26.3C1084.32 29.9667 1086.3 34.2933 1086.3 39.28C1086.3 43.5333 1084.76 47.4933 1081.68 51.16L1040.54 98.9L1082.56 147.74Z" fill="url(#paint2_linear)"/>
<defs>
<linearGradient id="paint0_linear" x1="620.228" y1="37.8907" x2="764.291" y2="41.7731" gradientUnits="userSpaceOnUse">
<stop stop-color="#F8485E"/>
<stop offset="1" stop-color="#E11383"/>
</linearGradient>
<linearGradient id="paint1_linear" x1="789.697" y1="35.0469" x2="931.822" y2="38.9583" gradientUnits="userSpaceOnUse">
<stop stop-color="#F8485E"/>
<stop offset="1" stop-color="#E11383"/>
</linearGradient>
<linearGradient id="paint2_linear" x1="951.861" y1="53.25" x2="1087.19" y2="57.4621" gradientUnits="userSpaceOnUse">
<stop stop-color="#F8485E"/>
<stop offset="1" stop-color="#E11383"/>
</linearGradient>
</defs>
</svg>
